<svg xmlns="http://www.w3.org/2000/svg" id="Layer_1" viewBox="0 0 468.54 82.3">
    <style>.st0{fill:#ffffff}.st1{fill:#ffffff}</style>
    <path class="st0" d="M327.43 60.17c-2.14.68-4.12 1.18-5.93 1.5-1.82.32-3.47.49-4.96.49-2.34 0-4.37-.39-6.1-1.16-1.73-.77-3.16-1.95-4.29-3.53-1.21-1.69-2.06-4.1-2.56-7.24-.49-3.14-.74-8.3-.74-15.48 0-7.15.25-12.3.74-15.46.49-3.15 1.34-5.59 2.56-7.31a9.969 9.969 0 0 1 4.16-3.48c1.7-.77 3.71-1.16 6.02-1.16 4.11 0 7.12.94 9.02 2.83 1.9 1.89 2.85 4.86 2.85 8.91h5.36v-.93c0-5.24-1.44-9.13-4.33-11.68-2.89-2.55-7.3-3.82-13.24-3.82-3.24 0-6.03.45-8.36 1.35-2.34.9-4.28 2.27-5.83 4.1-1.77 2.17-3.03 5.04-3.78 8.62-.75 3.58-1.12 9.41-1.12 17.49 0 8.64.34 14.78 1.03 18.39.69 3.62 1.87 6.46 3.53 8.51 1.52 1.89 3.47 3.33 5.85 4.33 2.38 1 5.05 1.5 8 1.5 2.65 0 5.46-.23 8.43-.7 2.97-.47 6.1-1.16 9.4-2.09V33.09h-17.99v4.48h12.29v22.6h-.01zm20.99 5.7V38.12c0-3.83.96-6.82 2.87-8.97 1.92-2.15 4.56-3.23 7.94-3.23h1.1V21.4h-1.01c-2.34 0-4.41.55-6.21 1.65-1.8 1.1-3.39 2.77-4.77 5.03l-.55-6.21h-5.45c.25 1.32.44 2.49.55 3.51.11 1.01.17 1.92.17 2.7v37.8h5.36v-.01zm19.36-4.14c2.37 3.46 6.29 5.19 11.78 5.19 5.46 0 9.35-1.69 11.66-5.07 2.31-3.38 3.46-9.28 3.46-17.7 0-8.33-1.17-14.21-3.51-17.63-2.34-3.42-6.24-5.13-11.7-5.13-5.49 0-9.4 1.71-11.74 5.13s-3.51 9.3-3.51 17.63c.01 8.26 1.2 14.11 3.56 17.58zm4.04-3.21c-1.48-2.65-2.22-7.43-2.22-14.36 0-6.84.75-11.61 2.24-14.3 1.49-2.69 4.04-4.03 7.64-4.03 3.63 0 6.18 1.37 7.64 4.1 1.46 2.73 2.2 7.86 2.2 15.37 0 6.25-.76 10.68-2.28 13.28-1.52 2.61-4.04 3.91-7.56 3.91-3.63 0-6.19-1.32-7.66-3.97zm52.6-10.81c0 4.76-.85 8.38-2.55 10.88-1.7 2.49-4.16 3.74-7.37 3.74-2.59 0-4.49-.77-5.7-2.32-1.21-1.55-1.82-3.97-1.82-7.26v-30.3h-5.2V54.8c0 3.77.99 6.74 2.98 8.89 1.99 2.15 4.74 3.23 8.26 3.23 2.42 0 4.6-.52 6.53-1.56 1.93-1.04 3.55-2.58 4.88-4.6l.38 5.11h5.24c-.14-1.6-.25-2.88-.32-3.82s-.1-1.68-.1-2.22V22.45h-5.2v25.26h-.01zm36.75 10.58c-1.39 2.69-3.87 4.03-7.41 4.03-3.41 0-5.86-1.47-7.35-4.41-1.49-2.94-2.24-7.9-2.24-14.89 0-5.8.8-10.09 2.41-12.86 1.61-2.77 4.08-4.16 7.43-4.16 3.29 0 5.66 1.31 7.1 3.93 1.44 2.62 2.15 6.96 2.15 13.01 0 7.54-.7 12.66-2.09 15.35zm-22.7-35.84c.14 1.16.25 2.39.32 3.72.07 1.32.11 2.7.11 4.14V82.3h5.03V60.76c1.38 2.03 2.96 3.53 4.73 4.5 1.77.97 3.77 1.46 6 1.46 4.9 0 8.44-1.74 10.62-5.22 2.18-3.48 3.27-9.26 3.27-17.34 0-8-1.1-13.77-3.29-17.34-2.2-3.56-5.73-5.34-10.6-5.34-2.34 0-4.38.49-6.12 1.48-1.75.99-3.28 2.52-4.6 4.6l-.46-5.11h-5.01z" />
    <path class="st1" d="M115.01 65.87v-4.86H94.27V3.57h-5.7v62.3h26.44zm7.45-26.65c0-4.56.82-7.93 2.47-10.12 1.65-2.18 4.17-3.27 7.58-3.27 3.32 0 5.75 1.03 7.28 3.08 1.54 2.06 2.3 5.32 2.3 9.8v1.9h-19.64v-1.39h.01zm19.31 13.51c0 3.24-.8 5.67-2.39 7.31-1.59 1.63-3.96 2.45-7.12 2.45-3.41 0-5.91-1.11-7.5-3.32-1.59-2.21-2.39-5.69-2.39-10.45V45h25v-6.88c0-5.35-1.28-9.47-3.84-12.37-2.56-2.9-6.21-4.35-10.94-4.35-2.51 0-4.77.41-6.8 1.22-2.03.82-3.69 1.97-4.98 3.46-1.38 1.61-2.36 3.58-2.93 5.93-.58 2.35-.87 5.99-.87 10.92 0 9.23 1.15 15.54 3.44 18.92 2.29 3.38 6.34 5.07 12.14 5.07 4.73 0 8.31-1.17 10.75-3.53 2.44-2.35 3.78-5.91 4.03-10.67h-5.6v.01zm35.03-4.86c0 4.65-.95 8.17-2.85 10.58-1.9 2.41-4.68 3.61-8.34 3.61-2.34 0-4.17-.77-5.51-2.32-1.34-1.55-2.01-3.69-2.01-6.42 0-3.83 1.3-6.49 3.91-7.98 2.6-1.49 7.52-2.27 14.76-2.32l.04 4.85zm5.87 18c-.17-1.41-.29-2.78-.38-4.12-.08-1.34-.13-2.61-.13-3.82v-23.9c0-4.34-1.09-7.53-3.27-9.57-2.18-2.04-5.6-3.06-10.24-3.06-4.67 0-8.21.97-10.6 2.91-2.39 1.94-3.59 4.81-3.59 8.62l5.28-.04c.06-2.45.74-4.28 2.05-5.49 1.31-1.21 3.29-1.82 5.93-1.82 3.21 0 5.53.67 6.95 2.01 1.42 1.34 2.13 3.57 2.13 6.69v4.77l-4.6.17c-6.53.23-11.37 1.48-14.51 3.78-3.14 2.29-4.71 5.74-4.71 10.33 0 3.88 1.06 7 3.17 9.36 2.11 2.35 4.93 3.53 8.45 3.53 2.54 0 4.87-.53 7.01-1.58 2.14-1.06 4.04-2.63 5.7-4.71l.51 5.96h4.85v-.02zm23.4 0l12.63-43.42h-5.07l-9.12 31.63c-.48 1.86-.82 3.25-1.03 4.18-.21.93-.37 1.79-.49 2.58a40.87 40.87 0 0 0-.57-3.4 63.39 63.39 0 0 0-.82-3.44l-8.91-31.55h-5.96l13.22 43.42h6.12zm24.41 0V22.45h-5.62v43.42h5.62zm27.16-5.03c-.62.17-1.25.3-1.9.4-.65.1-1.28.15-1.9.15-2 0-3.37-.42-4.1-1.27-.73-.84-1.1-2.76-1.1-5.75V26.59h9v-4.14h-9V10.67l-5.19 2.53v9.25h-6.8v4.14h6.8v28.3c0 4.59.6 7.57 1.79 8.93 1.2 1.37 3.46 2.05 6.78 2.05 1.72 0 2.95-.02 3.7-.06.75-.04 1.39-.11 1.92-.19v-4.78zm24.41 0c-.62.17-1.25.3-1.9.4-.65.1-1.28.15-1.9.15-2 0-3.37-.42-4.1-1.27-.73-.84-1.1-2.76-1.1-5.75V26.59h9v-4.14h-9V10.67l-5.19 2.53v9.25h-6.8v4.14h6.8v28.3c0 4.59.6 7.57 1.79 8.93 1.2 1.37 3.46 2.05 6.78 2.05 1.72 0 2.95-.02 3.7-.06.75-.04 1.39-.11 1.92-.19v-4.78zM227.66 15.59a3.171 3.171 0 0 0 0-6.34 3.171 3.171 0 0 0 0 6.34zM41.31 6.23C43.09 2.82 41.39 0 37.54 0H7.02C3.17 0 0 3.15 0 7v57.03c0 3.85 1.72 7 3.84 7s5.3-2.79 7.07-6.21l30.4-58.59z" />
    <path class="st0" d="M31.34 53.72c-1.77 3.42-.07 6.2 3.78 6.21h26.94c3.85 0 7.01-3.13 7.01-6.99V11.19c0-3.85-2.7-7-6.01-7-3.32 0-7.48 2.79-9.26 6.21L31.34 53.72z" />
</svg>