<?xml version="1.0" encoding="utf-8"?>
<!-- Generator: Adobe Illustrator 23.0.1, SVG Export Plug-In . SVG Version: 6.00 Build 0)  -->
<svg version="1.1" id="Layer_1" 
	xmlns="http://www.w3.org/2000/svg" 
	xmlns:xlink="http://www.w3.org/1999/xlink" x="0px" y="0px" viewBox="0 0 500 500" style="enable-background:new 0 0 500 500;" xml:space="preserve">
	<style type="text/css">
	.st0{fill:#00457C;}
	.st1{fill:#919295;}
	</style>
	<g>
		<path class="st0" d="M300.11,45.2c12.44-23.97,0.52-43.72-26.51-43.74H59.47C32.44,1.44,10.2,23.58,10.18,50.6v400.24
		c-0.01,27.02,12.1,49.12,26.95,49.13c14.85,0.01,37.18-19.61,49.62-43.59L300.11,45.2L300.11,45.2L300.11,45.2z"/>
		<path class="st1" d="M230.12,378.43c-12.44,24.01-0.49,43.54,26.53,43.55h189.03c27.02,0.01,49.16-22,49.18-49.03V80.01
		c0.02-27.02-18.92-49.15-42.21-49.15c-23.28-0.01-52.5,19.6-64.95,43.6L230.12,378.43L230.12,378.43L230.12,378.43z"/>
	</g>
</svg>